<?xml version="1.0" encoding="UTF-8"?>
<svg version="1.1" xmlns="http://www.w3.org/2000/svg" width="50" height="50">
<path d="M0 0 C3.38392885 1.87196064 4.67525258 3.00256151 5.875 6.6875 C6.13749361 13.64358055 5.38209447 18.8240014 2 25 C2 25.99 2 26.98 2 28 C2.99 27.34 3.98 26.68 5 26 C9.93012739 25.20616593 13.80794774 25.28476865 18.125 27.875 C20.7769173 32.29486216 20.98876625 35.97377154 20 41 C18.125 44.125 18.125 44.125 15 46 C11.5595804 46.61694116 8.41233474 46.80453421 5 46 C4.40678955 45.34088623 3.8135791 44.68177246 3.20239258 44.00268555 C0.44125683 41.49192216 -0.95665593 41.46900732 -4.640625 41.390625 C-6.24550781 41.34228516 -6.24550781 41.34228516 -7.8828125 41.29296875 C-8.99398438 41.27878906 -10.10515625 41.26460937 -11.25 41.25 C-12.37664063 41.22035156 -13.50328125 41.19070312 -14.6640625 41.16015625 C-17.44278021 41.08951088 -20.22066148 41.03678723 -23 41 C-21.98604502 35.23110813 -21.98604502 35.23110813 -19 33 C-16.73828125 32.05078125 -16.73828125 32.05078125 -14.3125 31.3125 C-13.50425781 31.06113281 -12.69601563 30.80976562 -11.86328125 30.55078125 C-11.24839844 30.36902344 -10.63351563 30.18726562 -10 30 C-10.39769293 25.43790753 -10.39769293 25.43790753 -12.01171875 21.234375 C-13.45112042 17.98007557 -13.37824681 15.04124958 -13.4375 11.5 C-13.47746094 10.1903125 -13.51742188 8.880625 -13.55859375 7.53125 C-13 4 -13 4 -10.72265625 1.5625 C-6.94063186 -0.60795876 -4.23953149 -0.83934159 0 0 Z M4.625 30.625 C2.51293494 33.71186432 2.38804855 35.3282913 3 39 C4.5 41.5 4.5 41.5 7 43 C10.6717087 43.61195145 12.28813568 43.48706506 15.375 41.375 C17.48706506 38.28813568 17.61195145 36.6717087 17 33 C15.5 30.5 15.5 30.5 13 29 C9.3282913 28.38804855 7.71186432 28.51293494 4.625 30.625 Z M-1 32 C-1 34.64 -1 37.28 -1 40 C-0.67 40 -0.34 40 0 40 C0 37.36 0 34.72 0 32 C-0.33 32 -0.66 32 -1 32 Z " fill="#000000" transform="translate(30,4)"/>
<path d="M0 0 C0.99 0 1.98 0 3 0 C2.63088042 2.67611698 2.15144437 3.8431469 0.25 5.8125 C-2.6004589 7.31690887 -3.98088413 6.92250763 -7 6 C-7.33 4.68 -7.66 3.36 -8 2 C-7.05125 2.04125 -6.1025 2.0825 -5.125 2.125 C-1.89755144 2.34973818 -1.89755144 2.34973818 0 0 Z " fill="#000000" transform="translate(43,37)"/>
</svg>
