<?xml version="1.0" encoding="UTF-8"?>
<svg version="1.1" xmlns="http://www.w3.org/2000/svg" width="50" height="50">
<path d="M0 0 C0 0.66 0 1.32 0 2 C0.66 2 1.32 2 2 2 C2 1.34 2 0.68 2 0 C4.87368648 0.31066881 6.5416589 0.55895479 8.65625 2.59375 C10.51004944 5.91334435 10.29232468 8.47631154 10.1875 12.25 C10.16042969 13.51328125 10.13335937 14.7765625 10.10546875 16.078125 C10.07066406 17.04234375 10.03585938 18.0065625 10 19 C9.34 19.33 8.68 19.66 8 20 C7.30662208 23.0399648 7.30662208 23.0399648 6.875 26.5625 C6.62363281 28.35880859 6.62363281 28.35880859 6.3671875 30.19140625 C6.24601562 31.11824219 6.12484375 32.04507813 6 33 C2.7 33 -0.6 33 -4 33 C-4.18175781 31.60974609 -4.18175781 31.60974609 -4.3671875 30.19140625 C-4.53476562 28.99386719 -4.70234375 27.79632813 -4.875 26.5625 C-5.03742187 25.36753906 -5.19984375 24.17257813 -5.3671875 22.94140625 C-5.57601563 21.97074219 -5.78484375 21.00007813 -6 20 C-6.66 19.67 -7.32 19.34 -8 19 C-8.10853983 16.77191841 -8.18583307 14.54230068 -8.25 12.3125 C-8.29640625 11.07113281 -8.3428125 9.82976563 -8.390625 8.55078125 C-7.75176691 2.74356123 -5.97180775 0 0 0 Z M0 3 C0 6.3 0 9.6 0 13 C0.66 13 1.32 13 2 13 C2 9.7 2 6.4 2 3 C1.34 3 0.68 3 0 3 Z " fill="#000000" transform="translate(24,14)"/>
<path d="M0 0 C3 0.25 3 0.25 5 2.25 C5.25 5.25 5.25 5.25 5 8.25 C3 10.25 3 10.25 0 10.5 C-3 10.25 -3 10.25 -5 8.25 C-5.25 5.25 -5.25 5.25 -5 2.25 C-3 0.25 -3 0.25 0 0 Z " fill="#000000" transform="translate(25,1.75)"/>
</svg>
