<?xml version="1.0" encoding="UTF-8"?>
<svg version="1.1" xmlns="http://www.w3.org/2000/svg" width="50" height="50">
<path d="M0 0 C13.2 0 26.4 0 40 0 C40 3.96 40 7.92 40 12 C38.68 12 37.36 12 36 12 C37.07401108 14.91517292 37.77810176 16.77810176 40 19 C40 19.99 40 20.98 40 22 C27.625 22.495 27.625 22.495 15 23 C15 24.32 15 25.64 15 27 C23.25 27.33 31.5 27.66 40 28 C39 32 39 32 37 34 C36.3574765 36.06874034 36.3574765 36.06874034 36 38 C37.32 38 38.64 38 40 38 C40 41.96 40 45.92 40 50 C26.8 50 13.6 50 0 50 C0 33.5 0 17 0 0 Z " fill="#000000" transform="translate(0,0)"/>
<path d="M0 0 C3.98874822 0.55017217 5.98075809 2.48687866 8.8125 5.25 C9.62332031 6.01828125 10.43414062 6.7865625 11.26953125 7.578125 C13 10 13 10 13.03515625 12.49609375 C11.73589382 15.63883797 10.05531854 17.44116977 7.625 19.8125 C6.83351563 20.60269531 6.04203125 21.39289062 5.2265625 22.20703125 C3 24 3 24 0 24 C1 20 1 20 7 14 C-6.86 13.505 -6.86 13.505 -21 13 C-21 12.34 -21 11.68 -21 11 C-11.76 10.67 -2.52 10.34 7 10 C4.69 7.69 2.38 5.38 0 3 C0 2.01 0 1.02 0 0 Z " fill="#000000" transform="translate(37,13)"/>
</svg>
