<?xml version="1.0" encoding="UTF-8"?>
<svg version="1.1" xmlns="http://www.w3.org/2000/svg" width="50" height="50">
<path d="M0 0 C2.97 0 5.94 0 9 0 C9 1.65 9 3.3 9 5 C7.68 5 6.36 5 5 5 C5 16.22 5 27.44 5 39 C14.24 39 23.48 39 33 39 C33 27.78 33 16.56 33 5 C31.68 5 30.36 5 29 5 C29 3.35 29 1.7 29 0 C31.97 0 34.94 0 38 0 C38 14.52 38 29.04 38 44 C25.46 44 12.92 44 0 44 C0 29.48 0 14.96 0 0 Z " fill="#000000" transform="translate(6,3)"/>
<path d="M0 0 C5.28 0 10.56 0 16 0 C16 2.97 16 5.94 16 9 C10.72 9 5.44 9 0 9 C0 6.03 0 3.06 0 0 Z " fill="#000000" transform="translate(17,1)"/>
<path d="M0 0 C1.671875 0.7890625 1.671875 0.7890625 2.4609375 2.4609375 C2.671875 4.7890625 2.671875 4.7890625 0.7578125 7.3671875 C-0.58410156 8.68976562 -0.58410156 8.68976562 -1.953125 10.0390625 C-2.83226562 10.93109375 -3.71140625 11.823125 -4.6171875 12.7421875 C-7.56373919 14.9669614 -8.73988219 15.28131242 -12.328125 14.7890625 C-12.82037492 11.20081969 -12.5060239 10.02467669 -10.28125 7.078125 C-9.38921875 6.19898438 -8.4971875 5.31984375 -7.578125 4.4140625 C-6.69640625 3.51945312 -5.8146875 2.62484375 -4.90625 1.703125 C-2.328125 -0.2109375 -2.328125 -0.2109375 0 0 Z " fill="#000000" transform="translate(28.328125,20.2109375)"/>
<path d="M0 0 C1.65 0 3.3 0 5 0 C5 1.65 5 3.3 5 5 C3.68 4.67 2.36 4.34 1 4 C0.67 2.68 0.34 1.36 0 0 Z " fill="#000000" transform="translate(29,17)"/>
</svg>
